<?xml version="1.0"?>
<!--Icons from directory ""-->
<svg xmlns="http://www.w3.org/2000/svg" width="30" height="240" viewBox="0 0 30 240"><svg xmlns:xlink="http://www.w3.org/1999/xlink" id="DocumentIcon" xml:space="preserve" height="30" viewBox="0 0 30 30" width="30" version="1.1" y="0" x="0px" enable-background="new 0 0 30 30">		<path d="m13.69 8.136h-4.008v1.295h4.007v-1.295zm0 3.237h-4.008v1.295h4.007v-1.295zm-4.008 4.533h9.39v-1.295h-9.39v1.295zm0 3.238h9.39v-1.295h-9.39v1.295zm0 3.237h9.39v-1.295h-9.39v1.295zm7.264-17.823h-10.446v20.73h15.755v-15.573l-5.309-5.157zm-0.032 1.775l3.014 2.927h-3.014v-2.927zm4.046 17.661h-13.165v-18.141h7.824v4.702h5.341v13.439z" fill="#242223"/></svg><svg xmlns:xlink="http://www.w3.org/1999/xlink" id="EditIcon" xml:space="preserve" height="30" viewBox="0 0 30 30" width="30" version="1.1" y="30" x="0px" enable-background="new 0 0 30 30"><path d="m23.622 6.877c-0.646-0.647-1.505-1.002-2.419-1.002-0.913 0-1.772 0.355-2.418 1.001l-10.285 10.227c-0.061 0.06-0.108 0.133-0.137 0.214l-2.328 6.402c-0.075 0.207-0.027 0.44 0.125 0.6 0.112 0.117 0.265 0.181 0.422 0.181 0.057 0 0.114-0.008 0.171-0.026l5.791-1.776c0.091-0.027 0.173-0.077 0.241-0.144l10.838-10.838c0.647-0.646 1.003-1.506 1.003-2.42-0.002-0.913-0.357-1.773-1.004-2.419zm-11.748 14.809l-2.167 0.666c-0.126-0.371-0.323-0.699-0.591-0.967-0.233-0.233-0.504-0.413-0.789-0.559l0.991-2.727h1.339v1.164c0 0.322 0.26 0.582 0.582 0.582h1.027l-0.392 1.841zm8.568-8.436l-7.091 7.092 0.204-0.959c0.036-0.172-0.007-0.351-0.118-0.487-0.111-0.137-0.277-0.216-0.452-0.216h-1.165v-1.164c0-0.321-0.261-0.582-0.582-0.582h-0.918l6.922-6.883 0.006 0.007c0.427-0.427 0.994-0.661 1.597-0.661 0.602 0 1.17 0.235 1.596 0.661 0.425 0.427 0.662 0.994 0.662 1.597 0 0.602-0.235 1.168-0.661 1.595zm2.357-2.357l-0.543 0.543c-0.052-0.832-0.397-1.607-0.991-2.201-0.594-0.595-1.37-0.939-2.204-0.991l0.546-0.542v-0.002c0.426-0.427 0.993-0.661 1.596-0.661s1.17 0.234 1.596 0.661 0.662 0.994 0.662 1.596c0 0.604-0.234 1.171-0.662 1.597zm-3.824-0.191l-5.82 5.82c-0.228 0.227-0.228 0.596 0 0.823 0.113 0.114 0.263 0.17 0.411 0.17s0.298-0.057 0.411-0.17l5.82-5.82c0.227-0.228 0.227-0.595 0-0.823-0.226-0.228-0.594-0.228-0.822 0z" fill="#61A625"/></svg><svg xmlns:xlink="http://www.w3.org/1999/xlink" id="MailIcon" xml:space="preserve" height="30" viewBox="0 0 30 30" width="30" version="1.1" y="60" x="0px" enable-background="new 0 0 30 30">		<path d="m21.883 7.9h-14.101c-1.259 0-2.282 1.023-2.282 2.283v9.642c0 1.259 1.023 2.283 2.282 2.283h14.097c1.259 0 2.282-1.024 2.282-2.283v-9.638c0.004-1.26-1.019-2.287-2.278-2.287zm0 13.165h-14.101c-0.683 0-1.24-0.556-1.24-1.24v-9.638c0-0.684 0.556-1.24 1.24-1.24h14.097c0.683 0 1.239 0.556 1.239 1.24v9.638h0.004c0 0.684-0.556 1.24-1.239 1.24zm-4.614-6.181l4.564-4.095c0.212-0.193 0.232-0.521 0.039-0.738-0.193-0.212-0.521-0.232-0.737-0.039l-6.294 5.652-1.228-1.097c-0.004-0.004-0.008-0.008-0.008-0.012-0.027-0.027-0.054-0.05-0.085-0.073l-4.996-4.474c-0.216-0.193-0.544-0.174-0.737 0.042s-0.174 0.545 0.043 0.738l4.618 4.13-4.599 4.307c-0.208 0.197-0.22 0.525-0.023 0.738 0.104 0.108 0.243 0.166 0.382 0.166 0.127 0 0.255-0.046 0.355-0.139l4.668-4.369 1.266 1.132c0.1 0.089 0.224 0.131 0.348 0.131 0.123 0 0.251-0.046 0.347-0.135l1.301-1.167 4.641 4.412c0.1 0.097 0.232 0.143 0.359 0.143 0.139 0 0.274-0.054 0.378-0.163 0.197-0.208 0.189-0.541-0.019-0.738l-4.583-4.352z" fill="#242223"/></svg><svg xmlns:xlink="http://www.w3.org/1999/xlink" id="MarkerIcon" xml:space="preserve" height="30" viewBox="0 0 30 30" width="30" version="1.1" y="90" x="0px" enable-background="new 0 0 30 30"><path d="m15.203 3.783c2.049 0 3.918 0.836 5.258 2.185 1.349 1.349 2.185 3.21 2.185 5.267 0 2.083-1.34 4.593-2.51 6.787-0.359 0.666-0.7 1.306-0.973 1.878l-3.423 7.128c-0.145 0.299-0.503 0.427-0.802 0.282-0.128-0.06-0.222-0.162-0.282-0.282l-3.423-7.128c-0.273-0.572-0.615-1.212-0.965-1.878-1.178-2.194-2.518-4.704-2.518-6.787 0-2.057 0.836-3.919 2.185-5.267 1.349-1.349 3.21-2.185 5.268-2.185zm0 3.798c1.007 0 1.921 0.41 2.578 1.067s1.067 1.571 1.067 2.586c0 1.007-0.41 1.921-1.067 2.578s-1.57 1.067-2.578 1.067-1.921-0.41-2.586-1.067c-0.657-0.657-1.067-1.571-1.067-2.578 0-1.016 0.41-1.929 1.067-2.586 0.665-0.657 1.578-1.067 2.586-1.067zm1.724 1.921c-0.444-0.444-1.05-0.717-1.724-0.717-0.683 0-1.289 0.273-1.733 0.717s-0.717 1.05-0.717 1.733c0 0.675 0.273 1.281 0.717 1.724 0.444 0.444 1.05 0.717 1.733 0.717 0.674 0 1.281-0.273 1.724-0.717 0.444-0.444 0.717-1.05 0.717-1.724 0-0.683-0.273-1.289-0.717-1.733zm2.689-2.68c-1.135-1.135-2.689-1.836-4.413-1.836s-3.287 0.7-4.413 1.836c-1.135 1.127-1.836 2.689-1.836 4.413 0 1.793 1.263 4.149 2.373 6.223 0.359 0.674 0.7 1.323 0.99 1.921l2.885 6.001 2.877-6.001c0.29-0.597 0.632-1.246 0.99-1.921 1.11-2.074 2.373-4.431 2.373-6.223 0.001-1.724-0.699-3.286-1.826-4.413z" fill="#242223"/></svg><svg xmlns:xlink="http://www.w3.org/1999/xlink" id="PhoneIcon" xml:space="preserve" height="30" viewBox="0 0 30 30" width="30" version="1.1" y="120" x="0px" enable-background="new 0 0 30 30"><path d="m24.112 19.55c-0.843-0.852-1.686-1.691-2.504-2.5-0.444-0.44-0.963-0.673-1.507-0.673s-1.063 0.233-1.503 0.669l-0.112 0.112c-0.444 0.44-0.905 0.897-1.35 1.354-0.091-0.046-0.183-0.091-0.27-0.137-0.204-0.1-0.399-0.195-0.569-0.303-1.337-0.839-2.566-1.956-3.754-3.423-0.577-0.71-0.98-1.342-1.262-1.981 0.395-0.382 0.781-0.772 1.159-1.155l0.291-0.291c0.926-0.931 0.922-2.135-0.004-3.07-0.282-0.286-0.573-0.573-0.851-0.852-0.126-0.124-0.251-0.248-0.376-0.373-0.133-0.133-0.262-0.262-0.394-0.395-0.282-0.287-0.577-0.582-0.872-0.868-0.444-0.436-0.968-0.664-1.507-0.664-0.54 0-1.063 0.228-1.503 0.664-0.212 0.212-0.428 0.424-0.632 0.632-0.299 0.303-0.61 0.615-0.922 0.914-0.581 0.552-0.905 1.25-0.967 2.076-0.095 1.3 0.266 2.476 0.59 3.356 0.739 1.99 1.869 3.875 3.455 5.765 1.977 2.351 4.356 4.212 7.072 5.537 1.495 0.727 2.778 1.097 4.028 1.167 0.091 0.004 0.183 0.008 0.27 0.008 1.055 0 1.923-0.374 2.579-1.105 0.282-0.316 0.586-0.611 0.905-0.922 0.162-0.158 0.328-0.32 0.494-0.486 0.929-0.933 0.933-2.13 0.016-3.056zm-0.806 2.268c-0.158 0.158-0.32 0.316-0.478 0.474-0.32 0.311-0.652 0.635-0.959 0.98-0.486 0.544-1.1 0.773-1.952 0.727-1.101-0.062-2.243-0.395-3.6-1.055-2.575-1.254-4.834-3.02-6.706-5.246-1.503-1.79-2.57-3.564-3.264-5.433-0.428-1.146-0.586-2.035-0.523-2.878 0.041-0.545 0.245-0.989 0.623-1.347 0.32-0.32 0.635-0.64 0.943-0.947 0.203-0.203 0.411-0.415 0.618-0.623 0.158-0.158 0.411-0.345 0.718-0.345s0.561 0.187 0.723 0.345c0.286 0.283 0.581 0.577 0.859 0.86 0.133 0.133 0.262 0.266 0.395 0.395l0.374 0.374 0.847 0.847c0.498 0.502 0.502 0.988 0.004 1.487-0.095 0.1-0.195 0.195-0.291 0.295-0.403 0.407-0.822 0.831-1.242 1.234-0.208 0.199-0.411 0.54-0.208 1.03 0.324 0.777 0.793 1.533 1.474 2.372 1.267 1.558 2.587 2.758 4.028 3.664 0.224 0.141 0.453 0.253 0.673 0.361 0.133 0.062 0.253 0.125 0.374 0.191 0.149 0.083 0.299 0.12 0.448 0.12 0.237 0 0.457-0.104 0.652-0.303 0.469-0.486 0.959-0.968 1.429-1.437l0.112-0.112c0.158-0.158 0.411-0.345 0.714-0.345s0.556 0.187 0.718 0.345c0.814 0.81 1.657 1.649 2.496 2.496 0.487 0.477 0.483 0.988 0.001 1.474z" fill="#242223"/></svg><svg xmlns:xlink="http://www.w3.org/1999/xlink" id="PromoCodeIcon" xml:space="preserve" height="30" viewBox="0 0 30 30" width="30" version="1.1" y="150" x="0px" enable-background="new 0 0 30 30">		<path d="m26.684 15.205l-9.873-9.872c-0.431-0.431-1.003-0.668-1.613-0.668-0.609 0-1.182 0.237-1.613 0.668l-0.391 0.391-0.224-0.223c-0.431-0.431-1.003-0.668-1.612-0.668s-1.182 0.237-1.613 0.668l-1.197 1.198h-2.775c-0.43 0-0.779 0.349-0.779 0.779v2.775l-1.198 1.197c-0.889 0.889-0.889 2.336 0 3.225l9.873 9.872c0.431 0.431 1.003 0.668 1.613 0.668 0.609 0 1.182-0.237 1.612-0.668l0.392-0.391 0.224 0.223c0.431 0.431 1.003 0.668 1.613 0.668 0.609 0 1.182-0.237 1.613-0.668l5.949-5.948c0.888-0.89 0.888-2.336-0.001-3.226zm-10.891 8.24c-0.136 0.136-0.318 0.212-0.511 0.212s-0.374-0.075-0.511-0.212l-9.873-9.872c-0.282-0.282-0.282-0.74 0-1.022l1.426-1.426c0.146-0.146 0.228-0.344 0.228-0.551v-2.317h2.318c0.207 0 0.405-0.082 0.551-0.228l1.426-1.425c0.137-0.137 0.318-0.212 0.511-0.212s0.375 0.075 0.511 0.212l0.774 0.774v0.001h0.001l9.098 9.097c0.136 0.136 0.212 0.318 0.212 0.511s-0.075 0.374-0.212 0.511l-5.949 5.947zm9.789-6.116l-5.949 5.948c-0.136 0.136-0.318 0.212-0.511 0.212s-0.374-0.075-0.511-0.212l-0.224-0.223 4.456-4.455c0.431-0.431 0.668-1.003 0.668-1.612s-0.237-1.182-0.668-1.612l-8.548-8.547 0.391-0.391c0.282-0.282 0.74-0.282 1.022 0l9.873 9.872c0.283 0.28 0.283 0.738 0.001 1.02zm-14.677-8.727l-4.019 4.018c-0.304 0.304-0.304 0.797 0 1.101 0.152 0.152 0.352 0.228 0.551 0.228s0.399-0.076 0.551-0.228l4.018-4.018c0.304-0.304 0.304-0.797 0-1.101-0.304-0.305-0.797-0.305-1.101 0z" fill="#242223"/></svg><svg xmlns:xlink="http://www.w3.org/1999/xlink" id="PurseIcon" xml:space="preserve" height="30" viewBox="0 0 30 30" width="30" version="1.1" y="180" x="0px" enable-background="new 0 0 30 30"><path d="m22.62 16.557h-0.547v-7.656c0-1.508-1.227-2.734-2.734-2.734h-10.938c-1.508 0-2.734 1.227-2.734 2.734v12.031c0 1.508 1.227 2.734 2.734 2.734h10.938c1.508 0 2.734-1.227 2.734-2.734v-1.094h0.547c0.302 0 0.547-0.245 0.547-0.547v-2.188c0-0.301-0.246-0.546-0.547-0.546zm-15.86-7.656c0-0.904 0.736-1.641 1.641-1.641h10.938c0.905 0 1.641 0.736 1.641 1.641v4.389c-0.323-0.244-0.694-0.424-1.104-0.507 0.001-0.019 0.011-0.034 0.011-0.054v-3.828c0-0.302-0.245-0.547-0.547-0.547h-10.392c-0.897 0-1.689 0.441-2.187 1.11v-0.563zm2.188 1.641c-0.712 0-1.313 0.458-1.539 1.094-0.062-0.172-0.101-0.354-0.101-0.547 0-0.904 0.736-1.641 1.641-1.641h9.844v1.094h-9.845zm9.844 1.093v1.094h-9.844c-0.301 0-0.547-0.245-0.547-0.547 0-0.301 0.246-0.547 0.547-0.547h9.844zm2.187 9.297c0 0.905-0.736 1.641-1.641 1.641h-10.937c-0.905 0-1.641-0.736-1.641-1.641v-7.67c0.458 0.347 1.023 0.56 1.641 0.56h10.938c0.905 0 1.641 0.736 1.641 1.641v1.094h-2.734c-0.905 0-1.641 0.736-1.641 1.641s0.736 1.641 1.641 1.641h2.734v1.093zm1.094-2.187h-3.828c-0.302 0-0.547-0.245-0.547-0.547 0-0.301 0.245-0.547 0.547-0.547h3.828v1.094z" fill="#242223"/></svg><svg xmlns:xlink="http://www.w3.org/1999/xlink" id="UserIcon" xml:space="preserve" height="30" viewBox="0 0 30 30" width="30" version="1.1" y="210" x="0px" enable-background="new 0 0 30 30">		<path d="m14.435 16.197c2.353 0 4.262-1.943 4.262-4.339s-1.909-4.326-4.262-4.326-4.262 1.943-4.262 4.326 1.909 4.339 4.262 4.339zm0-7.533c1.726 0 3.137 1.438 3.137 3.194 0 1.757-1.412 3.194-3.137 3.194s-3.137-1.437-3.137-3.194c-0.001-1.756 1.411-3.194 3.137-3.194zm2.64 8.292h-5.229c-2.941 0-5.346 2.436-5.346 5.444 0 0.319 0.248 0.572 0.562 0.572h14.798c0.314 0 0.562-0.253 0.562-0.572 0-2.995-2.392-5.444-5.347-5.444zm-9.412 4.871c0.275-2.09 2.039-3.727 4.183-3.727h5.229c2.144 0 3.909 1.624 4.183 3.727h-13.595z" fill="#242223"/></svg></svg>
